<svg width="24" height="24" viewBox="0 0 24 24" fill="none" xmlns="http://www.w3.org/2000/svg">
  <path d="M16.4 14.2c-2.7 2-6.8 3.1-10.3 3.1-4.9 0-9.3-1.8-12.6-4.8-.3-.2-.0-.6.3-.4 4.1 2.4 9.2 3.8 14.4 3.8 3.5 0 7.4-.7 10.9-2.2.5-.2.9.3.5.7l-.2-.2z" fill="#FF9900"/>
  <path d="M17.6 12.7c-.3-.4-2.2-.2-3.0-.1-.3.0-.3-.2-.1-.4 1.5-1.0 3.9-.7 4.2-.4.3.4-.1 2.8-1.5 4.0-.2.2-.4.1-.3-.1.3-.7.9-2.3.7-3.0z" fill="#FF9900"/>
  <path d="M14.8 3.4v-1.2c0-.2.1-.3.3-.3h5.2c.2 0 .3.1.3.3v1c0 .2-.1.4-.3.6l-2.7 3.9c1.0-.0 2.0.1 2.9.6.2.1.3.3.3.5v1.3c0 .2-.2.4-.4.3-1.5-.8-3.5-.9-5.2.0-.2.1-.4-.1-.4-.3v-1.2c0-.2.0-.6.2-.9l3.1-4.4h-2.7c-.2 0-.3-.1-.3-.3l-.3.1z" fill="#232F3E"/>
  <path d="M7.3 11.4h-1.7c-.2 0-.3-.1-.3-.3v-7.7c0-.2.1-.3.3-.3h1.6c.2 0 .3.1.3.3v1h.0c.3-.9 1.1-1.5 2.1-1.5 1.0 0 1.6.6 2.0 1.5.3-.9 1.2-1.5 2.2-1.5 .7 0 1.4.3 1.9.8.5.6.4 1.5.4 2.3v4.8c0 .2-.1.3-.3.3h-1.7c-.2 0-.3-.1-.3-.3v-4.0c0-.3.0-.8-.1-1.1-.1-.5-.4-.6-.8-.6-.3 0-.7.2-.8.6-.1.3-.1.8-.1 1.1v4.0c0 .2-.1.3-.3.3h-1.7c-.2 0-.3-.1-.3-.3v-4.0c0-.7.1-1.7-.9-1.7-.9 0-.9 1.0-.9 1.7v4.0c.0.2-.1.3-.3.3z" fill="#232F3E"/>
</svg>