<svg width="24" height="24" viewBox="0 0 24 24" fill="none" xmlns="http://www.w3.org/2000/svg">
  <path d="M13.976 9.15c-2.172-.806-3.596-1.191-3.596-2.705 0-1.112.791-1.785 2.074-1.785 2.343 0 4.741.674 6.546 1.785V2.38C16.93 1.513 14.5.902 12.001.902c-4.741 0-8.204 2.654-8.204 7.325 0 5.874 7.640 7.325 7.64 12.038 0 1.283-.98 1.91-2.343 1.91-2.659 0-5.357-.955-7.244-2.283v4.019c2.244 1.088 4.63 1.698 7.244 1.698 4.741 0 8.479-2.567 8.479-7.414 0-6.663-7.64-8.025-7.64-12.563z" fill="#635BFF"/>
</svg>